{
	"asset":{
		"generator":"Khronos glTF Blender I/O v5.1.19",
		"version":"2.0"
	},
	"scene":0,
	"scenes":[
		{
			"name":"Scene",
			"nodes":[
				0,
				1
			]
		}
	],
	"nodes":[
		{
			"mesh":0,
			"name":"Cabin",
			"translation":[
				0,
				1,
				-0.25
			]
		},
		{
			"mesh":1,
			"name":"Base",
			"translation":[
				0,
				-0.25,
				-0.75
			]
		}
	],
	"meshes":[
		{
			"name":"Cone.002",
			"primitives":[
				{
					"attributes":{
						"POSITION":0,
						"NORMAL":1,
						"TEXCOORD_0":2
					},
					"indices":3
				}
			]
		},
		{
			"name":"Cone.001",
			"primitives":[
				{
					"attributes":{
						"POSITION":4,
						"NORMAL":5,
						"TEXCOORD_0":6
					},
					"indices":7
				}
			]
		}
	],
	"accessors":[
		{
			"bufferView":0,
			"componentType":5126,
			"count":32,
			"max":[
				1.5,
				1,
				0.25
			],
			"min":[
				-1.5,
				-1,
				-2
			],
			"type":"VEC3"
		},
		{
			"bufferView":1,
			"componentType":5126,
			"count":32,
			"type":"VEC3"
		},
		{
			"bufferView":2,
			"componentType":5126,
			"count":32,
			"type":"VEC2"
		},
		{
			"bufferView":3,
			"componentType":5123,
			"count":48,
			"type":"SCALAR"
		},
		{
			"bufferView":4,
			"componentType":5126,
			"count":72,
			"max":[
				1.5,
				0.25,
				1.5
			],
			"min":[
				-1.5,
				-0.25,
				-1.5
			],
			"type":"VEC3"
		},
		{
			"bufferView":5,
			"componentType":5126,
			"count":72,
			"type":"VEC3"
		},
		{
			"bufferView":6,
			"componentType":5126,
			"count":72,
			"type":"VEC2"
		},
		{
			"bufferView":7,
			"componentType":5123,
			"count":132,
			"type":"SCALAR"
		}
	],
	"bufferViews":[
		{
			"buffer":0,
			"byteLength":384,
			"byteOffset":0,
			"target":34962
		},
		{
			"buffer":0,
			"byteLength":384,
			"byteOffset":384,
			"target":34962
		},
		{
			"buffer":0,
			"byteLength":256,
			"byteOffset":768,
			"target":34962
		},
		{
			"buffer":0,
			"byteLength":96,
			"byteOffset":1024,
			"target":34963
		},
		{
			"buffer":0,
			"byteLength":864,
			"byteOffset":1120,
			"target":34962
		},
		{
			"buffer":0,
			"byteLength":864,
			"byteOffset":1984,
			"target":34962
		},
		{
			"buffer":0,
			"byteLength":576,
			"byteOffset":2848,
			"target":34962
		},
		{
			"buffer":0,
			"byteLength":264,
			"byteOffset":3424,
			"target":34963
		}
	],
	"buffers":[
		{
			"byteLength":3688,
			"uri":"droid.bin"
		}
	]
}
